<svg width="27" height="27" viewBox="0 0 27 27" fill="none" xmlns="http://www.w3.org/2000/svg">
<path d="M0.00138725 6.96703L4.66517 0L18.4921 0.0125726L23.1155 6.9796L23.1379 14.0607C27.0078 16.3893 27.6212 21.7839 24.1761 24.8085C21.4702 27.1838 17.2707 26.9279 14.8962 24.2292H0.000488281V6.96703H0.00138725ZM9.19692 1.1019H5.2597L1.59729 6.60871H7.82015L9.19692 1.1019ZM14.2083 6.60871L13.303 1.15399L10.4345 1.09831L8.97689 6.60871H14.2083ZM21.5322 6.60871L17.8698 1.1019H14.4283L15.3919 6.60871H21.5322ZM7.71058 7.70971H1.10244V23.1282H14.0987C11.338 18.2914 15.365 12.4442 20.8846 13.2866C21.2726 13.3458 21.639 13.5003 22.0288 13.547V7.70971H15.4207V13.1061L13.2446 11.6916L11.584 12.7657L9.94054 11.6916L7.71058 13.1061V7.70971ZM14.3187 7.70971H8.81163V11.0684L9.93156 10.3616L11.5822 11.4465L13.2356 10.3616L14.3187 11.0684V7.70971ZM19.4288 14.3346C15.171 14.6507 12.897 19.4481 15.3201 22.981C17.55 26.2337 22.494 26.0478 24.5291 22.6837C26.8372 18.8688 23.8654 14.005 19.4288 14.3346Z" fill="white"/>
<path d="M9.91476 14.3174V22.0262H2.20557V14.3174H9.91476ZM8.8128 15.4193H3.30572V20.9261H8.8128V15.4193Z" fill="white"/>
<path d="M21.6237 17.7907C21.6767 17.7818 22.3027 18.3862 22.3628 18.4733C22.3961 18.5218 22.4419 18.5478 22.3907 18.6125L18.7453 22.2433L16.6914 20.2298L17.4781 19.4431L18.7444 20.6465L21.6228 17.7907H21.6237Z" fill="white"/>
<path d="M7.71177 16.5201H4.40771V17.6211H7.71177V16.5201Z" fill="white"/>
<path d="M7.71177 18.7233H4.40771V19.8243H7.71177V18.7233Z" fill="white"/>
</svg>
